<svg width="42" height="43" viewBox="0 0 42 43" fill="none" xmlns="http://www.w3.org/2000/svg">
<path d="M40.4781 1.12199L41.4502 0.887511L41.3083 0.298923L40.7209 0.151913L40.4781 1.12199ZM8.04184 27.8914L8.89456 28.4138L8.89469 28.4136L8.04184 27.8914ZM8.30122 30.2041L9.01486 29.5036L9.01483 29.5036L8.30122 30.2041ZM11.929 33.9L11.2154 34.6005L11.2156 34.6007L11.929 33.9ZM24.8466 26.5243L25.8463 26.5001L25.7991 24.5503L24.2434 25.7266L24.8466 26.5243ZM25.0185 33.633L25.5903 34.4534L26.0312 34.1461L26.0182 33.6088L25.0185 33.633ZM20.5959 36.7153L20.0241 35.8949L20.0239 35.895L20.5959 36.7153ZM19.3039 36.1109L18.3097 36.2184L18.3098 36.2185L19.3039 36.1109ZM18.7648 31.1231L18.1617 30.3255L17.7097 30.6672L17.7706 31.2306L18.7648 31.1231ZM15.453 16.9553L16.2612 17.5443L17.3841 16.0035L15.4781 15.9556L15.453 16.9553ZM8.47463 16.7802L8.49972 15.7805L7.9507 15.7667L7.64449 16.2226L8.47463 16.7802ZM5.44879 21.2854L6.27883 21.8431L6.27894 21.8429L5.44879 21.2854ZM6.04209 22.6012L6.15356 21.6074L6.15327 21.6074L6.04209 22.6012ZM10.9382 23.1504L10.8268 24.1441L11.4042 24.2089L11.7464 23.7393L10.9382 23.1504ZM9.61277 36.5417L10.5105 36.9824L10.8225 36.3466L10.3264 35.8412L9.61277 36.5417ZM1.03389 41.2841L0.0371857 41.3652L0.105912 42.2092L0.949687 42.2805L1.03389 41.2841ZM5.68929 32.545L6.40291 31.8445L5.88905 31.321L5.23543 31.6539L5.68929 32.545ZM31.2436 10.5292L30.53 11.2297L30.53 11.2298L31.2436 10.5292ZM26.8162 10.5292L27.5298 11.2298L27.5299 11.2297L26.8162 10.5292ZM26.8162 15.0392L27.5299 14.3387L27.5299 14.3387L26.8162 15.0392ZM14.7359 35.008C29.6894 25.5076 36.4138 17.1206 39.3754 11.0034C40.8567 7.94388 41.3902 5.46471 41.5444 3.71958C41.6214 2.84825 41.6036 2.16348 41.5635 1.68458C41.5435 1.44523 41.518 1.25752 41.4961 1.12386C41.4851 1.05704 41.475 1.00373 41.467 0.964237C41.463 0.944491 41.4595 0.9282 41.4567 0.9154C41.4552 0.909 41.454 0.903473 41.4529 0.898823C41.4524 0.896498 41.4519 0.894393 41.4514 0.892507C41.4512 0.891565 41.4509 0.890315 41.4508 0.889844C41.4505 0.88865 41.4502 0.887511 40.4781 1.12199C39.506 1.35647 39.5057 1.35543 39.5055 1.35446C39.5054 1.3542 39.5052 1.35328 39.5051 1.35277C39.5049 1.35174 39.5047 1.35093 39.5045 1.35034C39.5043 1.34914 39.5042 1.34878 39.5043 1.34927C39.5045 1.35024 39.5055 1.35457 39.507 1.36221C39.5101 1.37751 39.5156 1.4061 39.5225 1.4477C39.5361 1.53088 39.555 1.66613 39.5705 1.8512C39.6014 2.22117 39.6187 2.79118 39.5522 3.5435C39.4194 5.04567 38.9515 7.28932 37.5753 10.1319C34.822 15.8187 28.4072 23.9527 13.6633 33.3199L14.7359 35.008ZM40.4781 1.12199C40.7209 0.151913 40.7197 0.151621 40.7185 0.151316C40.718 0.151197 40.7168 0.150881 40.7158 0.150645C40.7139 0.150173 40.7117 0.149652 40.7094 0.149086C40.7047 0.147953 40.6991 0.146636 40.6927 0.145153C40.6798 0.142187 40.6635 0.138556 40.6438 0.134406C40.6044 0.126107 40.5514 0.115733 40.4852 0.10445C40.3526 0.0818809 40.1669 0.055682 39.9305 0.0351683C39.4573 -0.00587666 38.7819 -0.02407 37.9232 0.0546832C36.2032 0.212439 33.7639 0.757748 30.7567 2.26858C24.7456 5.28856 16.5127 12.1406 7.18899 27.3693L8.89469 28.4136C18.0927 13.3902 26.0779 6.85743 31.6546 4.05572C34.4412 2.65571 36.6382 2.18094 38.1059 2.04632C38.8411 1.97889 39.3975 1.99644 39.7576 2.02769C39.9378 2.04332 40.0691 2.0624 40.1495 2.07607C40.1896 2.08291 40.2171 2.0884 40.2315 2.09144C40.2387 2.09295 40.2426 2.09386 40.2432 2.09401C40.2436 2.09408 40.2431 2.09397 40.2418 2.09365C40.2411 2.09349 40.2402 2.09328 40.2392 2.09302C40.2386 2.09289 40.2377 2.09265 40.2374 2.09258C40.2364 2.09233 40.2353 2.09206 40.4781 1.12199ZM7.18911 27.3691C6.49892 28.4958 6.66053 29.9603 7.5876 30.9047L9.01483 29.5036C8.73445 29.218 8.6809 28.7626 8.89456 28.4138L7.18911 27.3691ZM7.58757 30.9047L11.2154 34.6005L12.6427 33.1995L9.01486 29.5036L7.58757 30.9047ZM11.2156 34.6007C12.148 35.5501 13.6109 35.7228 14.7359 35.008L13.6633 33.3199C13.3393 33.5258 12.9175 33.4793 12.6425 33.1993L11.2156 34.6007ZM16.9013 32.1749L10.0203 25.1657L8.59308 26.5668L15.4741 33.576L16.9013 32.1749ZM8.59308 26.5668L15.4741 33.576L16.9013 32.1749L10.0203 25.1657L8.59308 26.5668ZM23.8468 26.5485L24.0188 33.6571L26.0182 33.6088L25.8463 26.5001L23.8468 26.5485ZM24.4467 32.8126L20.0241 35.8949L21.1677 37.5357L25.5903 34.4534L24.4467 32.8126ZM20.0239 35.895C20.045 35.8803 20.078 35.867 20.1164 35.8643C20.1518 35.8619 20.1822 35.869 20.2057 35.8801C20.2551 35.9032 20.2928 35.9542 20.2981 36.0034L18.3098 36.2185C18.4571 37.5802 20.0055 38.346 21.1678 37.5356L20.0239 35.895ZM20.2982 36.0035L19.759 31.0156L17.7706 31.2306L18.3097 36.2184L20.2982 36.0035ZM19.368 31.9207L25.4497 27.3219L24.2434 25.7266L18.1617 30.3255L19.368 31.9207ZM15.4781 15.9556L8.49972 15.7805L8.44954 17.7799L15.4279 17.955L15.4781 15.9556ZM7.64449 16.2226L4.61865 20.7278L6.27894 21.8429L9.30477 17.3377L7.64449 16.2226ZM4.61876 20.7277C3.86132 21.8549 4.5367 23.439 5.9309 23.595L6.15327 21.6074C6.18182 21.6106 6.21485 21.6232 6.24268 21.6443C6.26808 21.6637 6.28293 21.6851 6.29117 21.7034C6.30771 21.7401 6.30928 21.7978 6.27883 21.8431L4.61876 20.7277ZM5.93062 23.5949L10.8268 24.1441L11.0497 22.1566L6.15356 21.6074L5.93062 23.5949ZM11.7464 23.7393L16.2612 17.5443L14.6449 16.3664L10.1301 22.5614L11.7464 23.7393ZM9.61277 36.5417C8.71507 36.1011 8.71527 36.1007 8.71546 36.1003C8.71551 36.1002 8.71569 36.0999 8.71579 36.0997C8.71599 36.0993 8.71615 36.0989 8.71627 36.0987C8.71652 36.0982 8.71661 36.098 8.71656 36.0981C8.71644 36.0984 8.71572 36.0998 8.71438 36.1024C8.71171 36.1076 8.7066 36.1176 8.69903 36.1318C8.68388 36.1604 8.65892 36.2063 8.62398 36.2669C8.55401 36.3883 8.44455 36.5677 8.29428 36.7847C7.99262 37.2203 7.53315 37.7974 6.90698 38.3582C5.66441 39.4712 3.78085 40.5126 1.11809 40.2876L0.949687 42.2805C4.28916 42.5627 6.69504 41.233 8.24135 39.848C9.00963 39.1599 9.56945 38.4562 9.93848 37.9234C10.1236 37.6562 10.2623 37.4295 10.3567 37.2658C10.4039 37.1838 10.4402 37.1174 10.4657 37.0693C10.4785 37.0453 10.4886 37.0258 10.496 37.0112C10.4997 37.0039 10.5028 36.9978 10.5052 36.993C10.5064 36.9906 10.5074 36.9885 10.5083 36.9867C10.5088 36.9858 10.5092 36.985 10.5095 36.9843C10.5097 36.9839 10.5099 36.9834 10.51 36.9833C10.5102 36.9828 10.5105 36.9824 9.61277 36.5417ZM2.03059 41.2029C1.80808 38.4704 2.83916 36.5411 3.93189 35.2751C4.48275 34.6369 5.04895 34.1692 5.47545 33.8627C5.68798 33.71 5.86363 33.5988 5.9822 33.5279C6.04141 33.4925 6.08617 33.4672 6.1139 33.4519C6.12776 33.4443 6.13734 33.4392 6.14233 33.4365C6.14482 33.4352 6.14617 33.4345 6.14632 33.4345C6.14639 33.4344 6.14617 33.4345 6.14564 33.4348C6.14538 33.4349 6.14504 33.4351 6.14462 33.4353C6.14442 33.4354 6.14405 33.4356 6.14394 33.4357C6.14356 33.4359 6.14315 33.4361 5.68929 32.545C5.23543 31.6539 5.23499 31.6542 5.23452 31.6544C5.23434 31.6545 5.23385 31.6547 5.23349 31.6549C5.23276 31.6553 5.23195 31.6557 5.23106 31.6562C5.22929 31.6571 5.2272 31.6582 5.2248 31.6594C5.22 31.6619 5.21396 31.6651 5.20671 31.6689C5.19223 31.6766 5.17294 31.6869 5.14918 31.7C5.10167 31.7262 5.03619 31.7633 4.95546 31.8116C4.79416 31.9081 4.5711 32.0497 4.30828 32.2386C3.78411 32.6153 3.0931 33.186 2.41788 33.9683C1.05843 35.5432 -0.238195 37.9834 0.0371857 41.3652L2.03059 41.2029ZM4.97567 33.2455L8.89915 37.2423L10.3264 35.8412L6.40291 31.8445L4.97567 33.2455ZM31.9572 15.7397C33.5616 14.1054 33.5617 11.4628 31.9571 9.8286L30.53 11.2298C31.3707 12.086 31.3708 13.4822 30.53 14.3387L31.9572 15.7397ZM31.9572 9.82867C30.3427 8.18399 27.7169 8.18389 26.1026 9.82875L27.5299 11.2297C28.3603 10.3837 29.6993 10.3836 30.53 11.2297L31.9572 9.82867ZM26.1027 9.8286C24.4981 11.4628 24.4982 14.1054 26.1026 15.7397L27.5299 14.3387C26.6891 13.4822 26.6892 12.086 27.5298 11.2298L26.1027 9.8286ZM26.1026 15.7397C27.7169 17.3845 30.3427 17.3844 31.9572 15.7397L30.53 14.3387C29.6993 15.1849 28.3603 15.1848 27.5299 14.3387L26.1026 15.7397Z" fill="#EFCE18"/>
</svg>
