<svg width="39" height="43" viewBox="0 0 39 43" fill="none" xmlns="http://www.w3.org/2000/svg">
<mask id="path-1-outside-1" maskUnits="userSpaceOnUse" x="-1" y="-1" width="40" height="44" fill="black">
<rect fill="white" x="-1" y="-1" width="40" height="44"/>
<path fill-rule="evenodd" clip-rule="evenodd" d="M19.1295 41.2879C37.0045 30.2304 36.2545 12.8364 36.2545 8.70909C27.6295 6.81812 19.1295 2 19.1295 2C19.1295 2 10.6295 6.81812 2.0045 8.70909C2.0045 12.8364 1.2545 30.2304 19.1295 41.2879ZM19.1295 37.4021C33.572 28.2882 32.966 13.9521 32.966 10.5504C25.9972 8.99187 19.1295 5.02058 19.1295 5.02058C19.1295 5.02058 12.2617 8.99187 5.293 10.5504C5.293 13.9521 4.687 28.2882 19.1295 37.4021Z"/>
</mask>
<path d="M36.2545 8.70909H38.2545C38.2545 7.76957 37.6005 6.9567 36.6828 6.75549L36.2545 8.70909ZM19.1295 2L20.1157 0.260083C19.504 -0.0866945 18.755 -0.0866945 18.1432 0.260083L19.1295 2ZM2.0045 8.70909L1.57618 6.75549C0.658454 6.9567 0.00449526 7.76957 0.00449526 8.70909H2.0045ZM32.966 10.5504H34.966C34.966 9.61398 34.3163 8.80294 33.4025 8.59858L32.966 10.5504ZM19.1295 5.02058L20.1307 3.28921C19.5113 2.93104 18.7477 2.93104 18.1283 3.28921L19.1295 5.02058ZM5.293 10.5504L4.8565 8.59858C3.94268 8.80294 3.293 9.61398 3.293 10.5504H5.293ZM20.1817 42.9888C39.0553 31.3135 38.2545 12.8471 38.2545 8.70909H34.2545C34.2545 12.8258 34.9537 29.1473 18.0773 39.5871L20.1817 42.9888ZM36.6828 6.75549C32.5601 5.85162 28.4198 4.23476 25.2781 2.82148C23.715 2.11833 22.4158 1.4732 21.5103 1.00545C21.0578 0.771718 20.7044 0.582694 20.4664 0.453376C20.3474 0.388729 20.2574 0.339041 20.1982 0.30619C20.1687 0.289766 20.1468 0.277554 20.133 0.26979C20.1261 0.265909 20.1212 0.263139 20.1183 0.261511C20.1168 0.260698 20.1159 0.260169 20.1155 0.25993C20.1153 0.25981 20.1152 0.259763 20.1152 0.259788C20.1152 0.259801 20.1154 0.259875 20.1154 0.259881C20.1156 0.259973 20.1157 0.260083 19.1295 2C18.1432 3.73992 18.1435 3.74006 18.1438 3.74023C18.1439 3.74031 18.1443 3.74049 18.1445 3.74065C18.1451 3.74097 18.1458 3.74136 18.1466 3.74183C18.1483 3.74276 18.1504 3.74398 18.1531 3.74549C18.1585 3.74851 18.1659 3.75268 18.1753 3.75797C18.1941 3.76855 18.2211 3.78363 18.2559 3.80295C18.3255 3.8416 18.4264 3.89728 18.5567 3.96807C18.8173 4.10963 19.1953 4.31179 19.6745 4.55931C20.6323 5.05404 21.9971 5.73164 23.6371 6.46938C26.9017 7.93791 31.3239 9.6756 35.8262 10.6627L36.6828 6.75549ZM19.1295 2C18.1432 0.260083 18.1434 0.259973 18.1436 0.259881C18.1436 0.259875 18.1437 0.259801 18.1438 0.259788C18.1438 0.259763 18.1437 0.25981 18.1435 0.25993C18.1431 0.260169 18.1422 0.260697 18.1407 0.261511C18.1378 0.263139 18.1329 0.265908 18.126 0.26979C18.1122 0.277554 18.0903 0.289766 18.0608 0.30619C18.0016 0.339041 17.9115 0.388729 17.7926 0.453376C17.5546 0.582693 17.2012 0.771718 16.7487 1.00545C15.8432 1.4732 14.544 2.11833 12.9809 2.82148C9.83916 4.23476 5.6989 5.85162 1.57618 6.75549L2.43281 10.6627C6.93509 9.6756 11.3573 7.93791 14.6219 6.46938C16.2619 5.73164 17.6267 5.05404 18.5845 4.55931C19.0637 4.31179 19.4417 4.10963 19.7023 3.96807C19.8326 3.89728 19.9335 3.8416 20.0031 3.80295C20.0379 3.78363 20.0648 3.76855 20.0837 3.75797C20.0931 3.75268 20.1005 3.74851 20.1059 3.74549C20.1086 3.74398 20.1107 3.74276 20.1124 3.74183C20.1132 3.74136 20.1139 3.74097 20.1144 3.74065C20.1147 3.74049 20.1151 3.74031 20.1152 3.74023C20.1155 3.74006 20.1157 3.73992 19.1295 2ZM0.00449526 8.70909C0.00449526 12.8471 -0.796293 31.3135 18.0773 42.9888L20.1817 39.5871C3.30528 29.1473 4.0045 12.8258 4.0045 8.70909H0.00449526ZM20.1968 39.0935C35.6273 29.3561 34.966 13.9515 34.966 10.5504H30.966C30.966 13.9527 31.5167 27.2203 18.0622 35.7108L20.1968 39.0935ZM33.4025 8.59858C30.111 7.86247 26.7949 6.54257 24.2686 5.38329C23.0134 4.80729 21.9703 4.27888 21.2438 3.89608C20.8809 3.70483 20.5979 3.55036 20.4078 3.44501C20.3128 3.39235 20.2411 3.352 20.1943 3.3255C20.171 3.31226 20.1538 3.30248 20.1431 3.29637C20.1378 3.29331 20.1341 3.29117 20.132 3.28997C20.1309 3.28937 20.1303 3.289 20.1301 3.28887C20.13 3.28881 20.13 3.2888 20.1301 3.28886C20.1301 3.28889 20.1303 3.28897 20.1303 3.28899C20.1305 3.28909 20.1307 3.28921 19.1295 5.02058C18.1283 6.75196 18.1286 6.7521 18.1289 6.75227C18.129 6.75234 18.1293 6.75252 18.1296 6.75267C18.1301 6.75296 18.1307 6.75332 18.1314 6.75374C18.1329 6.75457 18.1347 6.75565 18.137 6.75697C18.1416 6.75959 18.1478 6.76317 18.1557 6.76768C18.1714 6.77668 18.1937 6.7894 18.2223 6.80562C18.2796 6.83806 18.3622 6.88455 18.4686 6.94352C18.6814 7.06144 18.9893 7.2294 19.3791 7.43482C20.1581 7.84533 21.2675 8.40715 22.6003 9.01878C25.2501 10.2348 28.8522 11.6798 32.5295 12.5021L33.4025 8.59858ZM19.1295 5.02058C18.1283 3.28921 18.1285 3.28909 18.1287 3.28899C18.1287 3.28897 18.1289 3.28889 18.1289 3.28886C18.129 3.2888 18.129 3.28881 18.1289 3.28887C18.1287 3.289 18.128 3.28937 18.127 3.28997C18.1249 3.29117 18.1212 3.29331 18.1158 3.29637C18.1052 3.30248 18.088 3.31226 18.0647 3.3255C18.0179 3.352 17.9462 3.39235 17.8512 3.44501C17.6611 3.55036 17.3781 3.70483 17.0151 3.89608C16.2887 4.27888 15.2456 4.80729 13.9904 5.38329C11.4641 6.54257 8.14796 7.86247 4.8565 8.59858L5.72949 12.5021C9.40678 11.6798 13.0089 10.2348 15.6587 9.01878C16.9915 8.40715 18.1009 7.84533 18.8799 7.43482C19.2697 7.2294 19.5776 7.06144 19.7904 6.94352C19.8968 6.88455 19.9794 6.83806 20.0367 6.80562C20.0653 6.7894 20.0876 6.77668 20.1033 6.76768C20.1112 6.76317 20.1174 6.75959 20.122 6.75697C20.1243 6.75565 20.1261 6.75457 20.1276 6.75374C20.1283 6.75332 20.1289 6.75296 20.1294 6.75267C20.1297 6.75252 20.13 6.75234 20.1301 6.75227C20.1304 6.7521 20.1307 6.75196 19.1295 5.02058ZM3.293 10.5504C3.293 13.9515 2.63165 29.3561 18.0622 39.0935L20.1968 35.7108C6.74234 27.2203 7.293 13.9527 7.293 10.5504H3.293Z" fill="#EFCE18" mask="url(#path-1-outside-1)"/>
</svg>
