<svg width="39" height="42" viewBox="0 0 39 42" fill="none" xmlns="http://www.w3.org/2000/svg">
<path d="M25.0922 30.4276C25.1165 29.8759 24.6888 29.409 24.1371 29.3847C23.5853 29.3605 23.1184 29.7881 23.0941 30.3399L25.0922 30.4276ZM33.5106 29.8328L33.3764 28.8418C32.9219 28.9034 32.5676 29.2662 32.5168 29.722C32.466 30.1778 32.7317 30.6097 33.1615 30.7698L33.5106 29.8328ZM35.2353 20.132C34.6954 20.0155 34.1633 20.3587 34.0468 20.8986C33.9303 21.4384 34.2735 21.9705 34.8134 22.087L35.2353 20.132ZM28.3045 22.9564C27.7525 22.9729 27.3183 23.4338 27.3348 23.9858C27.3512 24.5378 27.8121 24.972 28.3641 24.9556L28.3045 22.9564ZM30.8353 6.14225L29.87 6.40348C30.0079 6.91308 30.5182 7.22769 31.0355 7.12201L30.8353 6.14225ZM19.854 37.546H18.854C18.854 37.5935 18.8574 37.6409 18.8642 37.688L19.854 37.546ZM29.3281 36.7392C29.3896 36.1903 28.9946 35.6955 28.4458 35.634C27.8969 35.5724 27.4021 35.9675 27.3406 36.5163L29.3281 36.7392ZM18.8722 5.13817C18.9769 5.68043 19.5015 6.0351 20.0437 5.93035C20.586 5.82559 20.9406 5.30109 20.8359 4.75883L18.8722 5.13817ZM7.81433 6.4175L7.78741 7.41714C8.20683 7.42843 8.58869 7.17671 8.74364 6.78681L7.81433 6.4175ZM2.64162 21.1821C3.11375 21.4687 3.72878 21.3182 4.01533 20.8461C4.30188 20.374 4.15144 19.7589 3.67931 19.4724L2.64162 21.1821ZM12.4787 20.897C12.8178 21.3329 13.446 21.4114 13.882 21.0723C14.3179 20.7332 14.3964 20.1049 14.0573 19.669L12.4787 20.897ZM5.78095 29.9245L6.45557 30.6627C6.74809 30.3953 6.85515 29.9805 6.72853 29.605C6.60191 29.2295 6.26551 28.9642 5.87083 28.9285L5.78095 29.9245ZM5.6886 35.3423L6.51894 34.785L6.51893 34.785L5.6886 35.3423ZM11.2343 36.9033L12.234 36.8787C12.2255 36.5331 12.0392 36.2165 11.7413 36.0413C11.4434 35.8661 11.0761 35.8571 10.77 36.0176L11.2343 36.9033ZM20.8373 37.7281C20.9379 37.185 20.5792 36.6633 20.0361 36.5627C19.493 36.4622 18.9713 36.8209 18.8708 37.3639L20.8373 37.7281ZM7.60568 24.3356C7.05469 24.2978 6.57739 24.7138 6.5396 25.2648C6.50181 25.8158 6.91784 26.2931 7.46883 26.3309L7.60568 24.3356ZM11.8983 32.8639C11.8988 33.4162 12.3469 33.8635 12.8992 33.863C13.4515 33.8625 13.8988 33.4144 13.8983 32.8621L11.8983 32.8639ZM9.14181 11.4859C8.59391 11.4165 8.09342 11.8043 8.02393 12.3522C7.95444 12.9001 8.34227 13.4006 8.89016 13.4701L9.14181 11.4859ZM15.5146 9.56832C15.6826 9.04219 15.3922 8.47954 14.866 8.3116C14.3399 8.14367 13.7773 8.43404 13.6093 8.96018L15.5146 9.56832ZM27.1158 10.839C27.105 10.2868 26.6487 9.84793 26.0965 9.85869C25.5443 9.86944 25.1054 10.3258 25.1162 10.878L27.1158 10.839ZM32.5145 17.0564C33.0654 17.0961 33.5441 16.6816 33.5837 16.1308C33.6234 15.5799 33.2089 15.1012 32.6581 15.0616L32.5145 17.0564ZM24.0932 30.3838C23.0941 30.3399 23.0941 30.3404 23.0941 30.3409C23.0941 30.3411 23.0941 30.3417 23.094 30.3421C23.094 30.343 23.094 30.3439 23.0939 30.345C23.0938 30.347 23.0938 30.3495 23.0937 30.3523C23.0935 30.3579 23.0932 30.365 23.093 30.3734C23.0925 30.3904 23.092 30.413 23.0918 30.4409C23.0912 30.4967 23.0915 30.5738 23.0942 30.6693C23.0998 30.8598 23.1154 31.1255 23.1554 31.4417C23.2347 32.0691 23.4132 32.9234 23.8186 33.7912C24.2264 34.6642 24.8724 35.5679 25.8881 36.2499C26.9084 36.935 28.2363 37.3522 29.9313 37.3522V35.3522C28.5762 35.3522 27.6492 35.0234 27.003 34.5895C26.3521 34.1524 25.9198 33.5639 25.6306 32.9448C25.339 32.3205 25.2018 31.6827 25.1396 31.1909C25.1089 30.9476 25.0974 30.747 25.0934 30.6112C25.0914 30.5434 25.0914 30.4923 25.0917 30.4606C25.0918 30.4448 25.0921 30.4339 25.0922 30.4283C25.0923 30.4255 25.0924 30.424 25.0924 30.4239C25.0924 30.4238 25.0924 30.4241 25.0923 30.4247C25.0923 30.425 25.0923 30.4254 25.0923 30.4259C25.0923 30.4262 25.0923 30.4266 25.0923 30.4267C25.0922 30.4272 25.0922 30.4276 24.0932 30.3838ZM29.9313 37.3522C31.6188 37.3522 32.9294 36.9379 33.8828 36.2031C34.8394 35.4657 35.3447 34.4756 35.5432 33.4982C35.7391 32.5341 35.6433 31.5596 35.3827 30.7703C35.2519 30.3743 35.0706 29.9973 34.8384 29.6803C34.6141 29.3739 34.2927 29.057 33.8598 28.8957L33.1615 30.7698C33.0982 30.7463 33.1329 30.7364 33.2248 30.8619C33.3089 30.9767 33.404 31.1565 33.4835 31.3975C33.6436 31.8822 33.7045 32.5032 33.5833 33.1001C33.4647 33.6836 33.1792 34.2201 32.6617 34.6191C32.141 35.0205 31.2942 35.3522 29.9313 35.3522V37.3522ZM33.5106 29.8328C33.6449 30.8237 33.6454 30.8236 33.6459 30.8236C33.6461 30.8235 33.6467 30.8235 33.6471 30.8234C33.6478 30.8233 33.6487 30.8232 33.6496 30.823C33.6514 30.8228 33.6535 30.8225 33.6558 30.8222C33.6605 30.8215 33.6662 30.8207 33.6728 30.8197C33.6861 30.8176 33.7032 30.8149 33.724 30.8114C33.7656 30.8043 33.8218 30.794 33.8906 30.7795C34.028 30.7507 34.2171 30.7053 34.441 30.6362C34.8855 30.499 35.4852 30.2632 36.0919 29.8659C37.3411 29.0479 38.5776 27.5624 38.5776 25.0578H36.5776C36.5776 26.7771 35.7806 27.6791 34.9963 28.1926C34.5864 28.4611 34.1693 28.627 33.8512 28.7251C33.6938 28.7737 33.5652 28.8043 33.4802 28.8221C33.4378 28.831 33.4066 28.8366 33.3886 28.8397C33.3796 28.8412 33.3739 28.8421 33.3718 28.8424C33.3707 28.8426 33.3706 28.8426 33.3713 28.8425C33.3717 28.8425 33.3723 28.8424 33.3731 28.8422C33.3736 28.8422 33.374 28.8421 33.3746 28.842C33.3749 28.842 33.3753 28.842 33.3754 28.8419C33.3759 28.8419 33.3764 28.8418 33.5106 29.8328ZM38.5776 25.0578C38.5776 23.0714 37.8154 21.8112 36.9621 21.0593C36.5499 20.6962 36.1375 20.4697 35.8242 20.3325C35.6668 20.2637 35.532 20.2163 35.4309 20.1849C35.3802 20.1691 35.3378 20.1573 35.3048 20.1487C35.2883 20.1444 35.2742 20.141 35.2625 20.1382C35.2567 20.1368 35.2515 20.1356 35.247 20.1346C35.2447 20.1341 35.2426 20.1336 35.2406 20.1332C35.2397 20.133 35.2387 20.1328 35.2378 20.1326C35.2374 20.1325 35.2368 20.1323 35.2365 20.1323C35.2359 20.1321 35.2353 20.132 35.0243 21.1095C34.8134 22.087 34.8128 22.0869 34.8122 22.0867C34.812 22.0867 34.8115 22.0866 34.8111 22.0865C34.8103 22.0863 34.8096 22.0862 34.809 22.086C34.8077 22.0857 34.8065 22.0855 34.8054 22.0852C34.8033 22.0848 34.8018 22.0844 34.8008 22.0842C34.7989 22.0837 34.799 22.0837 34.8013 22.0843C34.8057 22.0855 34.8181 22.0888 34.8372 22.0947C34.8758 22.1067 34.9404 22.1289 35.0224 22.1648C35.1878 22.2372 35.4138 22.3607 35.6399 22.56C36.0632 22.9329 36.5776 23.6468 36.5776 25.0578H38.5776ZM28.3343 23.956C28.3641 24.9556 28.3647 24.9555 28.3652 24.9555C28.3655 24.9555 28.3661 24.9555 28.3665 24.9555C28.3675 24.9555 28.3686 24.9554 28.3698 24.9554C28.3723 24.9553 28.3753 24.9552 28.3789 24.955C28.3861 24.9548 28.3955 24.9544 28.4071 24.9538C28.4303 24.9528 28.462 24.9511 28.5019 24.9486C28.5816 24.9435 28.6938 24.9348 28.8339 24.9204C29.1136 24.8917 29.5064 24.8396 29.975 24.7457C30.9079 24.5588 32.1647 24.2016 33.4321 23.5154C34.7034 22.8271 35.9997 21.7995 36.976 20.2721C37.9557 18.7393 38.5776 16.7579 38.5776 14.2227H36.5776C36.5776 16.4165 36.0442 18.0162 35.2908 19.195C34.5339 20.3792 33.5194 21.1938 32.4799 21.7566C31.4364 22.3216 30.3824 22.6243 29.5822 22.7847C29.1842 22.8644 28.8549 22.9077 28.6292 22.9309C28.5164 22.9425 28.43 22.9491 28.3744 22.9526C28.3465 22.9544 28.3264 22.9554 28.3146 22.956C28.3087 22.9563 28.3048 22.9564 28.3031 22.9565C28.3023 22.9565 28.302 22.9565 28.3022 22.9565C28.3023 22.9565 28.3026 22.9565 28.303 22.9565C28.3032 22.9565 28.3035 22.9565 28.3036 22.9565C28.3041 22.9565 28.3045 22.9564 28.3343 23.956ZM38.5776 14.2227C38.5776 9.23045 36.7701 6.79335 34.6516 5.74028C33.643 5.23891 32.6477 5.09674 31.9183 5.07523C31.551 5.0644 31.2427 5.08388 31.0214 5.10691C30.9106 5.11845 30.8207 5.13098 30.7554 5.14127C30.7227 5.14642 30.696 5.15103 30.6759 5.15469C30.6658 5.15653 30.6573 5.15812 30.6505 5.15944C30.6471 5.1601 30.6441 5.16068 30.6415 5.16119C30.6403 5.16145 30.6391 5.16168 30.638 5.1619C30.6375 5.16201 30.6368 5.16216 30.6365 5.16221C30.6358 5.16235 30.6351 5.16249 30.8353 6.14225C31.0355 7.12201 31.0348 7.12214 31.0342 7.12226C31.0341 7.12229 31.0335 7.12241 31.0332 7.12247C31.0325 7.12261 31.0319 7.12272 31.0315 7.12281C31.0305 7.123 31.03 7.1231 31.0298 7.12314C31.0295 7.1232 31.0307 7.12297 31.0334 7.12248C31.0387 7.12151 31.0499 7.11953 31.0666 7.11691C31.1001 7.11164 31.1551 7.10381 31.2285 7.09616C31.376 7.0808 31.5944 7.06655 31.8593 7.07436C32.394 7.09013 33.0844 7.19471 33.7613 7.53122C35.014 8.1539 36.5776 9.75705 36.5776 14.2227H38.5776ZM30.8353 6.14225C31.8006 5.88102 31.8004 5.88058 31.8003 5.88012C31.8003 5.87994 31.8001 5.87946 31.8 5.8791C31.7998 5.87838 31.7996 5.87759 31.7994 5.87671C31.7989 5.87496 31.7983 5.87289 31.7977 5.87051C31.7963 5.86575 31.7947 5.85974 31.7926 5.85253C31.7885 5.8381 31.7828 5.81884 31.7757 5.79506C31.7613 5.74752 31.7406 5.6818 31.7131 5.60051C31.6581 5.43813 31.5753 5.21236 31.4602 4.9442C31.231 4.41056 30.8674 3.69442 30.3282 2.97268C29.2431 1.52 27.403 0 24.5446 0V2C26.5853 2 27.8905 3.05112 28.7259 4.16957C29.1471 4.7334 29.4375 5.30281 29.6224 5.73335C29.7143 5.94727 29.7785 6.12324 29.8188 6.24208C29.8389 6.30139 29.8529 6.34616 29.8613 6.37394C29.8655 6.38783 29.8683 6.39744 29.8697 6.40247C29.8704 6.40499 29.8708 6.40636 29.8708 6.40654C29.8709 6.40663 29.8708 6.40642 29.8707 6.40592C29.8706 6.40566 29.8705 6.40533 29.8704 6.40493C29.8703 6.40473 29.8702 6.40436 29.8702 6.40426C29.8701 6.40388 29.87 6.40348 30.8353 6.14225ZM24.5446 0C21.8558 0 20.3518 1.16519 19.5806 2.46357C19.2143 3.08029 19.0352 3.68866 18.9464 4.13733C18.9016 4.36351 18.8786 4.55479 18.8668 4.69429C18.8608 4.76422 18.8577 4.82167 18.856 4.86459C18.8551 4.88607 18.8546 4.90396 18.8544 4.91802C18.8542 4.92505 18.8542 4.93112 18.8541 4.93621C18.8541 4.93876 18.8541 4.94105 18.8541 4.9431C18.854 4.94413 18.854 4.94509 18.854 4.94599C18.854 4.94644 18.854 4.94707 18.854 4.94729C18.854 4.9479 18.854 4.9485 19.854 4.9485C20.854 4.9485 20.854 4.94907 20.854 4.94962C20.854 4.94978 20.854 4.95032 20.854 4.95065C20.854 4.95131 20.854 4.95191 20.854 4.95246C20.854 4.95355 20.854 4.95442 20.854 4.95507C20.854 4.95636 20.854 4.95677 20.854 4.95633C20.854 4.95544 20.8541 4.95117 20.8544 4.94372C20.855 4.92881 20.8564 4.90143 20.8596 4.86339C20.8661 4.78696 20.8798 4.66976 20.9083 4.52577C20.966 4.23409 21.0801 3.85534 21.3001 3.48493C21.7016 2.80906 22.5429 2 24.5446 2V0ZM18.854 4.9485V37.546H20.854V4.9485H18.854ZM19.854 37.546C18.8642 37.688 18.8643 37.6885 18.8643 37.6891C18.8644 37.6894 18.8645 37.69 18.8645 37.6904C18.8646 37.6913 18.8648 37.6922 18.8649 37.6931C18.8652 37.6951 18.8655 37.6972 18.8659 37.6995C18.8666 37.7042 18.8675 37.7096 18.8685 37.7158C18.8705 37.7282 18.8731 37.7436 18.8765 37.7619C18.8832 37.7984 18.8928 37.8465 18.9061 37.9044C18.9328 38.02 18.9745 38.1766 19.0381 38.3606C19.1645 38.7262 19.3824 39.215 19.7518 39.7072C20.5197 40.7305 21.8711 41.668 24.0917 41.668V39.668C22.5223 39.668 21.7549 39.0445 21.3515 38.5068C21.1351 38.2185 21.0043 37.9268 20.9283 37.7071C20.8907 37.5984 20.8679 37.511 20.8552 37.4559C20.8489 37.4285 20.8452 37.4094 20.8435 37.4002C20.8427 37.3956 20.8423 37.3935 20.8424 37.3941C20.8425 37.3944 20.8426 37.3953 20.8429 37.397C20.843 37.3978 20.8431 37.3988 20.8433 37.4C20.8434 37.4006 20.8435 37.4012 20.8436 37.4019C20.8437 37.4022 20.8437 37.4028 20.8438 37.4029C20.8438 37.4035 20.8439 37.4041 19.854 37.546ZM24.0917 41.668C26.4302 41.668 27.7815 40.3845 28.4987 39.1503C28.8487 38.5481 29.0529 37.9551 29.1701 37.5183C29.2293 37.298 29.2677 37.1121 29.2918 36.9777C29.3039 36.9103 29.3124 36.8554 29.3182 36.8151C29.3211 36.7949 29.3233 36.7783 29.3249 36.7656C29.3257 36.7592 29.3264 36.7538 29.3269 36.7494C29.3272 36.7472 29.3274 36.7452 29.3276 36.7435C29.3277 36.7427 29.3278 36.7419 29.3279 36.7412C29.3279 36.7408 29.328 36.7403 29.328 36.7401C29.3281 36.7396 29.3281 36.7392 28.3343 36.6278C27.3406 36.5163 27.3406 36.5159 27.3407 36.5155C27.3407 36.5154 27.3407 36.5149 27.3407 36.5147C27.3408 36.5142 27.3408 36.5138 27.3409 36.5134C27.341 36.5127 27.341 36.5122 27.3411 36.512C27.3411 36.5114 27.3411 36.5118 27.3409 36.5131C27.3406 36.5157 27.3398 36.5218 27.3384 36.5312C27.3357 36.55 27.3309 36.5819 27.3231 36.625C27.3076 36.7115 27.2811 36.8413 27.2385 36.9998C27.1524 37.3205 27.0065 37.7376 26.7695 38.1454C26.3128 38.9314 25.5428 39.668 24.0917 39.668V41.668ZM19.854 4.9485C20.8359 4.75883 20.8358 4.75837 20.8357 4.75789C20.8357 4.75771 20.8356 4.75722 20.8355 4.75687C20.8354 4.75615 20.8352 4.75537 20.8351 4.75454C20.8347 4.75286 20.8343 4.75094 20.8339 4.74877C20.833 4.74444 20.832 4.73915 20.8307 4.73291C20.8281 4.72045 20.8246 4.70422 20.8201 4.68448C20.8112 4.64503 20.7985 4.59141 20.7813 4.52563C20.7469 4.39431 20.6944 4.21314 20.6186 3.99855C20.4681 3.5725 20.2201 2.99766 19.8285 2.41586C19.032 1.23247 17.615 0 15.3013 0V2C16.7776 2 17.637 2.74178 18.1693 3.53264C18.4422 3.93797 18.6217 4.35025 18.7327 4.66454C18.7877 4.82012 18.8243 4.94743 18.8465 5.03205C18.8575 5.07424 18.8648 5.10544 18.869 5.12383C18.871 5.13301 18.8723 5.13896 18.8728 5.14143C18.8731 5.14267 18.8731 5.14304 18.873 5.14251C18.873 5.14224 18.8729 5.14175 18.8727 5.14103C18.8727 5.14067 18.8726 5.14025 18.8725 5.13977C18.8725 5.13954 18.8724 5.13913 18.8724 5.13902C18.8723 5.1386 18.8722 5.13817 19.854 4.9485ZM15.3013 0C13.2275 0 11.4822 0.531495 10.0568 1.60018C8.64229 2.66072 7.62369 4.18944 6.88502 6.04819L8.74364 6.78681C9.39159 5.15631 10.2217 3.97628 11.2566 3.20038C12.2806 2.43263 13.5855 2 15.3013 2V0ZM7.81433 6.4175C7.84125 5.41786 7.84066 5.41785 7.84005 5.41783C7.83981 5.41782 7.83917 5.41781 7.8387 5.4178C7.83774 5.41777 7.83667 5.41775 7.8355 5.41772C7.83316 5.41767 7.8304 5.41761 7.82723 5.41756C7.82088 5.41744 7.81286 5.41733 7.80324 5.41725C7.78399 5.41708 7.75829 5.41705 7.72655 5.41741C7.66312 5.41812 7.57536 5.4204 7.46673 5.42636C7.24983 5.43827 6.94751 5.46498 6.58778 5.52396C5.87264 5.64122 4.9056 5.89011 3.92811 6.42359C2.9438 6.96079 1.9483 7.78764 1.20397 9.04642C0.4598 10.3049 0 11.9388 0 14.039H2C2 12.2367 2.39199 10.9667 2.92551 10.0644C3.45886 9.16242 4.16695 8.57171 4.88623 8.17916C5.61231 7.78289 6.34886 7.58984 6.9114 7.4976C7.19052 7.45184 7.42056 7.43191 7.57633 7.42336C7.65403 7.41909 7.71267 7.41769 7.74905 7.41728C7.76723 7.41708 7.77979 7.41712 7.78633 7.41718C7.7896 7.4172 7.79136 7.41723 7.79156 7.41724C7.79166 7.41724 7.79136 7.41723 7.79068 7.41722C7.79033 7.41721 7.78989 7.4172 7.78934 7.41719C7.78907 7.41718 7.78859 7.41717 7.78845 7.41717C7.78795 7.41715 7.78741 7.41714 7.81433 6.4175ZM0 14.039C0 16.6764 0.573848 18.4233 1.21092 19.5438C1.52796 20.1014 1.85459 20.4929 2.11903 20.7549C2.25093 20.8856 2.36658 20.9833 2.4568 21.0529C2.5019 21.0877 2.54061 21.1155 2.57179 21.1368C2.58738 21.1475 2.60109 21.1565 2.61278 21.164C2.61862 21.1678 2.62396 21.1712 2.62877 21.1742C2.63118 21.1757 2.63345 21.1771 2.63559 21.1784C2.63666 21.1791 2.6377 21.1797 2.63871 21.1803C2.63921 21.1807 2.63994 21.1811 2.64019 21.1812C2.64091 21.1817 2.64162 21.1821 3.16046 20.3272C3.67931 19.4724 3.68 19.4728 3.68069 19.4732C3.68091 19.4734 3.68159 19.4738 3.68202 19.474C3.6829 19.4746 3.68374 19.4751 3.68455 19.4756C3.68617 19.4766 3.68766 19.4775 3.68903 19.4784C3.69176 19.4801 3.694 19.4815 3.69575 19.4826C3.69926 19.4849 3.70084 19.486 3.70061 19.4858C3.70014 19.4855 3.69244 19.4802 3.67846 19.4694C3.65053 19.4479 3.59739 19.4043 3.52675 19.3343C3.3861 19.1949 3.17262 18.9476 2.94954 18.5552C2.50638 17.7758 2 16.3786 2 14.039H0ZM13.268 20.283C14.0573 19.669 14.0569 19.6686 14.0566 19.6682C14.0565 19.668 14.0562 19.6676 14.0559 19.6673C14.0555 19.6667 14.055 19.666 14.0544 19.6654C14.0534 19.664 14.0522 19.6626 14.051 19.661C14.0485 19.6578 14.0456 19.6542 14.0422 19.65C14.0356 19.6418 14.0273 19.6316 14.0173 19.6197C13.9974 19.5958 13.9708 19.5648 13.9375 19.5277C13.8709 19.4536 13.777 19.3549 13.6552 19.24C13.4119 19.0104 13.055 18.7144 12.579 18.4214C11.6215 17.832 10.1944 17.263 8.27662 17.263V19.263C9.77884 19.263 10.8474 19.704 11.5306 20.1246C11.875 20.3366 12.1246 20.5456 12.2828 20.6948C12.3618 20.7693 12.4174 20.8283 12.45 20.8647C12.4663 20.8828 12.4769 20.8952 12.4816 20.9009C12.484 20.9038 12.485 20.905 12.4845 20.9044C12.4842 20.9041 12.4836 20.9033 12.4826 20.9021C12.4821 20.9015 12.4816 20.9007 12.4809 20.8999C12.4806 20.8995 12.4802 20.899 12.4798 20.8985C12.4797 20.8983 12.4794 20.8979 12.4793 20.8978C12.479 20.8974 12.4787 20.897 13.268 20.283ZM8.27662 17.263C6.38065 17.263 4.49684 17.822 3.06869 19.0246C1.61747 20.2465 0.713947 22.0706 0.713947 24.415H2.71395C2.71395 22.6274 3.38176 21.3755 4.35688 20.5544C5.35506 19.714 6.7526 19.263 8.27662 19.263V17.263ZM0.713947 24.415C0.713947 26.7562 1.58968 28.3714 2.67565 29.4082C3.72243 30.4076 4.94863 30.8535 5.69107 30.9205L5.87083 28.9285C5.59659 28.9038 4.78929 28.661 4.05673 27.9616C3.36338 27.2997 2.71395 26.206 2.71395 24.415H0.713947ZM5.78095 29.9245C5.10634 29.1863 5.10587 29.1868 5.1054 29.1872C5.10523 29.1873 5.10475 29.1878 5.10441 29.1881C5.10374 29.1887 5.10302 29.1894 5.10227 29.1901C5.10077 29.1915 5.09913 29.193 5.09735 29.1946C5.09378 29.198 5.08965 29.2018 5.08499 29.2063C5.07566 29.2152 5.06419 29.2263 5.05079 29.2396C5.024 29.2662 4.98941 29.3017 4.94884 29.346C4.86787 29.4343 4.76202 29.5585 4.64645 29.7171C4.41645 30.0326 4.13995 30.495 3.95015 31.0897C3.55614 32.3241 3.58037 33.9954 4.85826 35.8995L6.51893 34.785C5.57823 33.3833 5.64863 32.3458 5.85545 31.6978C5.96607 31.3512 6.12864 31.079 6.26262 30.8952C6.32904 30.8041 6.3864 30.7375 6.42314 30.6974C6.44142 30.6775 6.45431 30.6644 6.4603 30.6585C6.46328 30.6555 6.46451 30.6544 6.4638 30.655C6.46344 30.6554 6.46259 30.6562 6.46123 30.6575C6.46055 30.6581 6.45974 30.6588 6.4588 30.6597C6.45832 30.6601 6.45782 30.6606 6.45728 30.6611C6.45702 30.6613 6.45659 30.6617 6.45645 30.6619C6.45602 30.6623 6.45557 30.6627 5.78095 29.9245ZM4.85825 35.8995C6.18163 37.8714 7.91059 38.3911 9.31402 38.3621C9.99091 38.3481 10.5749 38.2088 10.987 38.0758C11.1947 38.0088 11.3634 37.9418 11.4842 37.8895C11.5447 37.8633 11.5935 37.8407 11.6295 37.8234C11.6475 37.8147 11.6624 37.8074 11.674 37.8016C11.6798 37.7986 11.6847 37.7961 11.6888 37.794C11.6909 37.7929 11.6927 37.792 11.6944 37.7911C11.6952 37.7907 11.696 37.7903 11.6967 37.7899C11.697 37.7898 11.6975 37.7895 11.6977 37.7894C11.6982 37.7892 11.6987 37.7889 11.2343 36.9033C10.77 36.0176 10.7704 36.0174 10.7709 36.0171C10.771 36.0171 10.7714 36.0168 10.7717 36.0167C10.7722 36.0164 10.7726 36.0162 10.7731 36.016C10.7739 36.0156 10.7745 36.0152 10.775 36.015C10.7759 36.0145 10.776 36.0145 10.7755 36.0147C10.7743 36.0153 10.7702 36.0174 10.7633 36.0207C10.7495 36.0273 10.7247 36.0389 10.6899 36.054C10.62 36.0842 10.5115 36.1277 10.3725 36.1725C10.0914 36.2633 9.70491 36.3536 9.27267 36.3625C8.45781 36.3794 7.4139 36.1186 6.51894 34.785L4.85825 35.8995ZM11.2343 36.9033C10.2346 36.9278 10.2346 36.9284 10.2347 36.9289C10.2347 36.9291 10.2347 36.9297 10.2347 36.9301C10.2347 36.9309 10.2347 36.9318 10.2348 36.9327C10.2348 36.9345 10.2349 36.9366 10.235 36.9389C10.2351 36.9436 10.2353 36.9492 10.2356 36.9556C10.2361 36.9686 10.2369 36.9852 10.2381 37.0052C10.2405 37.0452 10.2445 37.0989 10.251 37.1645C10.2641 37.2954 10.2877 37.4752 10.3304 37.6881C10.415 38.1097 10.579 38.6844 10.9021 39.2692C11.2277 39.8585 11.7212 40.4689 12.4611 40.929C13.205 41.3915 14.1432 41.668 15.3013 41.668V39.668C14.4723 39.668 13.9085 39.4739 13.5172 39.2306C13.1219 38.9847 12.8471 38.6539 12.6527 38.3021C12.4559 37.9457 12.3484 37.5791 12.2914 37.2949C12.2633 37.1548 12.2486 37.0406 12.2411 36.9655C12.2374 36.9281 12.2355 36.901 12.2346 36.8858C12.2341 36.8783 12.2339 36.8737 12.2339 36.8725C12.2338 36.8718 12.2338 36.872 12.2339 36.873C12.2339 36.8735 12.2339 36.8743 12.2339 36.8752C12.2339 36.8757 12.234 36.8762 12.234 36.8768C12.234 36.877 12.234 36.8775 12.234 36.8777C12.234 36.8782 12.234 36.8787 11.2343 36.9033ZM15.3013 41.668C17.5936 41.668 19.0132 40.7491 19.8408 39.7419C20.241 39.2548 20.4855 38.7692 20.6309 38.4031C20.704 38.2192 20.7533 38.0624 20.7854 37.9463C20.8014 37.8881 20.8133 37.8398 20.8216 37.803C20.8258 37.7846 20.8292 37.769 20.8318 37.7564C20.833 37.7502 20.8341 37.7446 20.8351 37.7399C20.8355 37.7375 20.836 37.7354 20.8363 37.7334C20.8365 37.7324 20.8367 37.7315 20.8369 37.7306C20.8369 37.7301 20.8371 37.7295 20.8371 37.7293C20.8372 37.7287 20.8373 37.7281 19.854 37.546C18.8708 37.3639 18.8709 37.3634 18.871 37.3628C18.871 37.3626 18.8711 37.3621 18.8712 37.3617C18.8713 37.361 18.8714 37.3604 18.8715 37.3598C18.8718 37.3585 18.872 37.3575 18.8721 37.3566C18.8725 37.3549 18.8727 37.3539 18.8728 37.3535C18.8729 37.3528 18.8725 37.3547 18.8715 37.3591C18.8695 37.3681 18.865 37.3868 18.8575 37.414C18.8424 37.4686 18.8155 37.5558 18.7723 37.6646C18.6852 37.8838 18.5367 38.1787 18.2956 38.4721C17.8405 39.0259 16.9837 39.668 15.3013 39.668V41.668ZM7.53726 25.3333C7.46883 26.3309 7.4682 26.3309 7.46759 26.3308C7.46742 26.3308 7.46683 26.3308 7.46647 26.3307C7.46576 26.3307 7.46513 26.3306 7.46458 26.3306C7.46347 26.3305 7.46268 26.3305 7.46218 26.3304C7.4612 26.3303 7.46142 26.3304 7.46282 26.3305C7.46562 26.3307 7.4731 26.3314 7.48494 26.3328C7.50865 26.3355 7.54962 26.3407 7.60539 26.3498C7.71722 26.3682 7.88659 26.4021 8.09417 26.4626C8.51128 26.5842 9.06769 26.8087 9.62205 27.2172C10.6841 27.9999 11.8953 29.5719 11.8983 32.8639L13.8983 32.8621C13.8947 28.9916 12.4254 26.7987 10.8086 25.6072C10.0235 25.0286 9.24088 24.7136 8.65383 24.5425C8.35932 24.4567 8.11032 24.4059 7.9293 24.3762C7.83864 24.3613 7.76458 24.3517 7.70985 24.3455C7.68247 24.3424 7.65988 24.3401 7.64242 24.3386C7.63368 24.3378 7.62623 24.3372 7.62009 24.3367C7.61703 24.3364 7.61429 24.3362 7.61189 24.336C7.61068 24.3359 7.60957 24.3359 7.60853 24.3358C7.60802 24.3358 7.6073 24.3357 7.60705 24.3357C7.60636 24.3356 7.60568 24.3356 7.53726 25.3333ZM9.01599 12.478C8.89016 13.4701 8.89061 13.4701 8.89107 13.4702C8.89125 13.4702 8.89173 13.4703 8.89209 13.4703C8.8928 13.4704 8.89357 13.4705 8.89442 13.4706C8.89611 13.4708 8.89807 13.471 8.9003 13.4713C8.90475 13.4718 8.91027 13.4725 8.91683 13.4732C8.92996 13.4747 8.94725 13.4765 8.96847 13.4786C9.0109 13.4827 9.06919 13.4877 9.14146 13.4923C9.28574 13.5015 9.48717 13.5092 9.73039 13.5051C10.2133 13.497 10.8797 13.442 11.5983 13.2485C13.0535 12.8568 14.7801 11.8696 15.5146 9.56832L13.6093 8.96018C13.1422 10.4237 12.0958 11.0434 11.0784 11.3173C10.5608 11.4566 10.0659 11.4992 9.69674 11.5054C9.5139 11.5085 9.36654 11.5026 9.26855 11.4963C9.21968 11.4932 9.18346 11.4901 9.16167 11.4879C9.15078 11.4869 9.14353 11.4861 9.14014 11.4857C9.13844 11.4855 9.13771 11.4854 9.13798 11.4855C9.13812 11.4855 9.1385 11.4855 9.13914 11.4856C9.13946 11.4857 9.13984 11.4857 9.14028 11.4858C9.14051 11.4858 9.14089 11.4858 9.141 11.4858C9.1414 11.4859 9.14181 11.4859 9.01599 12.478ZM26.116 10.8585C25.1162 10.878 25.1162 10.8786 25.1162 10.8793C25.1162 10.8796 25.1162 10.8803 25.1162 10.8808C25.1163 10.8818 25.1163 10.8829 25.1163 10.8841C25.1164 10.8865 25.1164 10.8891 25.1165 10.8921C25.1167 10.8979 25.117 10.905 25.1173 10.9132C25.118 10.9296 25.119 10.9506 25.1206 10.9758C25.1239 11.0264 25.1294 11.0942 25.1389 11.1771C25.1579 11.3427 25.1929 11.5699 25.2576 11.8397C25.3866 12.3776 25.6369 13.0984 26.1248 13.8375C27.1303 15.3608 29.0421 16.8065 32.5145 17.0564L32.6581 15.0616C29.7526 14.8525 28.4291 13.698 27.794 12.7357C27.4615 12.2321 27.2901 11.7388 27.2025 11.3733C27.1589 11.1915 27.1369 11.0447 27.1259 10.9491C27.1204 10.9015 27.1178 10.867 27.1165 10.8479C27.1159 10.8383 27.1157 10.8326 27.1156 10.831C27.1156 10.8303 27.1156 10.8305 27.1156 10.8318C27.1156 10.8325 27.1157 10.8334 27.1157 10.8346C27.1157 10.8352 27.1157 10.8359 27.1157 10.8366C27.1158 10.837 27.1158 10.8376 27.1158 10.8378C27.1158 10.8384 27.1158 10.839 26.116 10.8585Z" fill="#EFCE18"/>
</svg>
