<svg width="42" height="43" viewBox="0 0 42 43" fill="none" xmlns="http://www.w3.org/2000/svg">
<path d="M14.1058 21.4385C14.1302 20.8868 13.7028 20.4197 13.151 20.3952C12.5993 20.3708 12.1322 20.7982 12.1077 21.35L14.1058 21.4385ZM40.2724 37.7135L41.0335 38.3621C41.1614 38.2121 41.242 38.0277 41.2654 37.832L40.2724 37.7135ZM16.2509 14.0569L15.5611 14.7808C15.7733 14.983 16.0635 15.082 16.355 15.0515C16.6465 15.021 16.91 14.8641 17.0757 14.6224L16.2509 14.0569ZM10.3399 12.4123L10.5167 13.3966L10.5167 13.3966L10.3399 12.4123ZM20.5545 39.5942C21.1041 39.6485 21.5936 39.247 21.6479 38.6974C21.7022 38.1478 21.3007 37.6582 20.7511 37.6039L20.5545 39.5942ZM36.7033 19.0349C36.6805 19.5867 37.1094 20.0525 37.6612 20.0753C38.213 20.0981 38.6788 19.6692 38.7016 19.1174L36.7033 19.0349ZM27.6555 1.25905L28.2574 0.460501L28.2572 0.460337L27.6555 1.25905ZM26.0379 1.31066L25.3888 0.549938L25.3887 0.550018L26.0379 1.31066ZM23.7771 3.24013L23.1279 2.47949L23.1278 2.4796L23.7771 3.24013ZM23.7313 5.19035L23.0468 5.91933L23.0468 5.91936L23.7313 5.19035ZM24.5515 5.96052L25.2592 6.66704C25.4504 6.47558 25.5558 6.21486 25.5514 5.94436C25.547 5.67387 25.4333 5.41668 25.236 5.2315L24.5515 5.96052ZM21.2204 10.4218C21.2389 10.9737 21.7014 11.4062 22.2534 11.3877C22.8053 11.3691 23.2378 10.9067 23.2193 10.3547L21.2204 10.4218ZM26.3354 10.8399C26.3424 11.3922 26.7958 11.8341 27.348 11.8271C27.9002 11.8201 28.3422 11.3667 28.3352 10.8145L26.3354 10.8399ZM28.7019 8.11112L29.4864 7.49109C29.3091 7.26671 29.0442 7.12898 28.7587 7.11273C28.4731 7.09649 28.1943 7.20327 27.9927 7.40609L28.7019 8.11112ZM29.8581 12.5042C30.0218 13.0317 30.5821 13.3266 31.1096 13.163C31.637 12.9993 31.932 12.439 31.7683 11.9116L29.8581 12.5042ZM31.4761 4.67001C31.0568 5.02949 31.0083 5.66079 31.3678 6.08008C31.7273 6.49936 32.3586 6.54784 32.7779 6.18837L31.4761 4.67001ZM36.759 1.45791L37.4099 2.21709L37.4099 2.21702L36.759 1.45791ZM38.5512 1.56215L37.8172 2.24132L37.8172 2.24134L38.5512 1.56215ZM39.6036 2.69944L38.8696 3.37863L38.8697 3.37869L39.6036 2.69944ZM39.5098 4.57021L38.8479 3.82062L38.8478 3.8207L39.5098 4.57021ZM33.959 8.1386C33.545 8.50421 33.5058 9.13616 33.8714 9.55011C34.237 9.96405 34.869 10.0032 35.2829 9.63763L33.959 8.1386ZM6.92525 14.0875C7.24466 14.538 7.86884 14.6443 8.31939 14.3249C8.76994 14.0055 8.87625 13.3813 8.55684 12.9308L6.92525 14.0875ZM1.24141 4.34099L2.0572 3.76264L2.05718 3.76261L1.24141 4.34099ZM1.60186 2.48084L1.06335 1.63822L1.06331 1.63825L1.60186 2.48084ZM3.4202 1.31876L3.95871 2.16138L3.95898 2.1612L3.4202 1.31876ZM5.18169 1.67474L4.3592 2.24352L4.35934 2.24373L5.18169 1.67474ZM7.09561 4.44093L6.27326 5.00991C6.58432 5.45948 7.19876 5.57593 7.65275 5.27134L7.09561 4.44093ZM11.1722 1.70587L11.7294 2.53628L11.7295 2.53618L11.1722 1.70587ZM12.9236 1.99885L13.7198 1.39379L13.7196 1.39354L12.9236 1.99885ZM13.5497 2.82266L12.7535 3.42773L12.7538 3.42807L13.5497 2.82266ZM13.273 4.67825L12.6895 3.86613L12.6895 3.86614L13.273 4.67825ZM9.08222 7.68935L8.49872 6.87724C8.06002 7.19244 7.95095 7.79907 8.25238 8.24735L9.08222 7.68935ZM11.3729 12.8881C11.6811 13.3464 12.3024 13.4681 12.7607 13.1599C13.2191 12.8518 13.3408 12.2304 13.0326 11.7721L11.3729 12.8881ZM13.1068 21.3943C12.1077 21.35 12.1077 21.3505 12.1077 21.3511C12.1077 21.3514 12.1077 21.352 12.1076 21.3526C12.1076 21.3538 12.1075 21.3553 12.1074 21.3571C12.1073 21.3607 12.1071 21.3655 12.1069 21.3715C12.1064 21.3834 12.1059 21.4001 12.1052 21.4214C12.104 21.464 12.1025 21.5249 12.1013 21.603C12.0991 21.759 12.0984 21.9838 12.104 22.2676C12.1153 22.8347 12.1521 23.6392 12.2538 24.6026C12.4565 26.5236 12.9201 29.1045 13.9722 31.7006C15.0248 34.2981 16.6818 36.9466 19.2898 38.946C21.9099 40.9546 25.4225 42.2557 30.0853 42.2557V40.2557C25.8186 40.2557 22.7442 39.0741 20.5066 37.3587C18.2568 35.634 16.7853 33.3172 15.8257 30.9494C14.8655 28.5801 14.433 26.1956 14.2427 24.3926C14.1479 23.494 14.1139 22.7468 14.1036 22.2278C14.0985 21.9684 14.0992 21.7665 14.1011 21.6317C14.1021 21.5642 14.1034 21.5136 14.1043 21.481C14.1048 21.4647 14.1052 21.4529 14.1055 21.4458C14.1056 21.4422 14.1057 21.4398 14.1058 21.4386C14.1058 21.438 14.1058 21.4377 14.1058 21.4377C14.1058 21.4377 14.1058 21.4379 14.1058 21.4379C14.1058 21.4382 14.1058 21.4385 13.1068 21.3943ZM30.0853 42.2557C33.8422 42.2557 36.5506 41.3257 38.3399 40.3658C39.2318 39.8873 39.8898 39.4044 40.3323 39.0324C40.5535 38.8464 40.721 38.6881 40.837 38.5717C40.895 38.5135 40.9402 38.4657 40.9728 38.4302C40.9892 38.4124 41.0024 38.3978 41.0125 38.3863C41.0175 38.3806 41.0218 38.3757 41.0253 38.3717C41.0271 38.3697 41.0286 38.3679 41.03 38.3663C41.0307 38.3655 41.0313 38.3647 41.0319 38.364C41.0322 38.3637 41.0326 38.3632 41.0328 38.363C41.0332 38.3626 41.0335 38.3621 40.2724 37.7135C39.5113 37.0649 39.5116 37.0645 39.512 37.0641C39.5121 37.064 39.5124 37.0636 39.5126 37.0634C39.513 37.0629 39.5134 37.0625 39.5137 37.0621C39.5143 37.0614 39.5148 37.0608 39.5151 37.0605C39.5156 37.0599 39.5155 37.0601 39.5146 37.061C39.5128 37.063 39.5082 37.0682 39.5007 37.0764C39.4856 37.0928 39.459 37.1211 39.4204 37.1598C39.3434 37.2371 39.219 37.3555 39.0452 37.5016C38.6978 37.7937 38.1532 38.1963 37.3944 38.6034C35.8822 39.4146 33.4971 40.2557 30.0853 40.2557V42.2557ZM40.2724 37.7135C41.2654 37.832 41.2654 37.8317 41.2654 37.8314C41.2654 37.8313 41.2655 37.8309 41.2655 37.8306C41.2656 37.8299 41.2657 37.8291 41.2658 37.8281C41.2661 37.826 41.2664 37.8231 41.2668 37.8195C41.2677 37.8123 41.2688 37.8021 41.2703 37.7889C41.2733 37.7625 41.2775 37.7243 41.2827 37.6747C41.2932 37.5757 41.3077 37.4316 41.3244 37.2468C41.3577 36.8774 41.3999 36.3452 41.436 35.6868C41.5081 34.3713 41.5563 32.5454 41.4599 30.503C41.2696 26.467 40.5087 21.391 38.0827 17.7985L36.4253 18.9177C38.5269 22.03 39.2752 26.6318 39.4622 30.5972C39.5545 32.5556 39.5084 34.3114 39.439 35.5774C39.4043 36.2098 39.3639 36.7183 39.3325 37.0669C39.3167 37.2412 39.3032 37.3753 39.2938 37.4649C39.289 37.5097 39.2853 37.5433 39.2829 37.5652C39.2816 37.5761 39.2807 37.5841 39.2801 37.5891C39.2799 37.5916 39.2796 37.5934 39.2795 37.5944C39.2795 37.5949 39.2794 37.5952 39.2794 37.5953C39.2794 37.5954 39.2794 37.5953 39.2794 37.5953C39.2794 37.5952 39.2794 37.5951 40.2724 37.7135ZM38.0827 17.7985C33.342 10.7781 27.599 9.38823 23.7969 9.38823V11.3882C27.0378 11.3882 32.1108 12.5285 36.4253 18.9177L38.0827 17.7985ZM23.7969 9.38823C21.0239 9.38823 18.9357 10.4027 17.5482 11.4146C16.8561 11.9193 16.3354 12.4251 15.9845 12.8089C15.8087 13.0012 15.6745 13.1641 15.5817 13.2825C15.5353 13.3417 15.4991 13.39 15.4732 13.4254C15.4603 13.4431 15.4499 13.4576 15.442 13.4687C15.4381 13.4742 15.4348 13.4789 15.4322 13.4827C15.4309 13.4846 15.4297 13.4863 15.4287 13.4877C15.4282 13.4885 15.4277 13.4891 15.4273 13.4897C15.4271 13.4901 15.4268 13.4905 15.4267 13.4906C15.4264 13.491 15.4262 13.4914 16.2509 14.0569C17.0757 14.6224 17.0754 14.6227 17.0752 14.6231C17.0751 14.6232 17.0749 14.6235 17.0748 14.6237C17.0745 14.6241 17.0743 14.6244 17.0741 14.6247C17.0737 14.6253 17.0734 14.6256 17.0733 14.6258C17.0732 14.6261 17.0736 14.6255 17.0746 14.6241C17.0765 14.6213 17.0809 14.6152 17.0876 14.606C17.101 14.5877 17.1238 14.5571 17.156 14.516C17.2204 14.4338 17.322 14.31 17.4606 14.1584C17.7385 13.8544 18.1611 13.443 18.7267 13.0305C19.8545 12.2081 21.5393 11.3882 23.7969 11.3882V9.38823ZM16.2509 14.0569C16.9408 13.333 16.9405 13.3327 16.9402 13.3323C16.94 13.3322 16.9397 13.3319 16.9394 13.3317C16.939 13.3312 16.9384 13.3307 16.9379 13.3302C16.9367 13.3291 16.9355 13.3279 16.934 13.3266C16.9312 13.3239 16.9277 13.3207 16.9237 13.3169C16.9155 13.3094 16.905 13.2997 16.8922 13.2882C16.8664 13.265 16.8312 13.234 16.7868 13.1965C16.6981 13.1216 16.5724 13.0202 16.4119 12.9032C16.0919 12.6696 15.6291 12.3701 15.0431 12.0932C13.8707 11.5393 12.1798 11.0658 10.1631 11.4281L10.5167 13.3966C12.0215 13.1263 13.2861 13.4751 14.1888 13.9016C14.6404 14.115 14.9951 14.3451 15.2331 14.5188C15.3517 14.6054 15.4402 14.677 15.4959 14.7241C15.5238 14.7476 15.5433 14.7649 15.5543 14.7748C15.5598 14.7798 15.5631 14.7828 15.5643 14.7839C15.5648 14.7844 15.5649 14.7844 15.5643 14.7839C15.5641 14.7837 15.5637 14.7833 15.5631 14.7828C15.5628 14.7825 15.5625 14.7822 15.5622 14.7819C15.562 14.7818 15.5617 14.7815 15.5617 14.7814C15.5614 14.7811 15.5611 14.7808 16.2509 14.0569ZM10.1631 11.4281C6.50352 12.0853 2.92578 15.6922 2.92578 22.2798H4.92578C4.92578 16.4698 7.98601 13.8511 10.5167 13.3966L10.1631 11.4281ZM2.92578 22.2798C2.92578 25.5047 3.6107 29.4845 6.21598 32.8538C8.84166 36.2496 13.303 38.8778 20.5545 39.5942L20.7511 37.6039C13.9166 36.9287 10.0145 34.4968 7.79816 31.6304C5.56141 28.7377 4.92578 25.2537 4.92578 22.2798H2.92578ZM37.7025 19.0762C38.7016 19.1174 38.7017 19.1168 38.7017 19.1162C38.7017 19.116 38.7017 19.1153 38.7017 19.1148C38.7018 19.1138 38.7018 19.1127 38.7019 19.1114C38.702 19.1087 38.7021 19.1055 38.7022 19.1016C38.7025 19.094 38.7028 19.0839 38.7031 19.0714C38.7037 19.0465 38.7043 19.0122 38.7045 18.9687C38.705 18.8818 38.7042 18.7585 38.6992 18.6018C38.6891 18.2885 38.6623 17.841 38.5962 17.2831C38.4641 16.1678 38.1744 14.6078 37.5451 12.7955C36.2837 9.16285 33.6633 4.53539 28.2574 0.460501L27.0535 2.05759C32.1049 5.86529 34.508 10.1464 35.6558 13.4516C36.2311 15.1083 36.4924 16.5246 36.6101 17.5184C36.669 18.015 36.6918 18.4052 36.7002 18.6659C36.7044 18.7963 36.7049 18.8941 36.7046 18.9566C36.7044 18.9879 36.7039 19.0102 36.7036 19.0234C36.7035 19.03 36.7033 19.0343 36.7033 19.0362C36.7032 19.0372 36.7032 19.0375 36.7032 19.0373C36.7032 19.0372 36.7033 19.037 36.7033 19.0366C36.7033 19.0364 36.7033 19.0359 36.7033 19.0358C36.7033 19.0354 36.7033 19.0349 37.7025 19.0762ZM28.2572 0.460337C27.3959 -0.188528 26.2032 -0.144979 25.3888 0.549938L26.6869 2.07138C26.7941 1.97994 26.9471 1.97744 27.0538 2.05775L28.2572 0.460337ZM25.3887 0.550018L23.1279 2.47949L24.4262 4.00077L26.687 2.0713L25.3887 0.550018ZM23.1278 2.4796C22.0822 3.37222 22.045 4.97863 23.0468 5.91933L24.4158 4.46137C24.2822 4.33587 24.2877 4.11907 24.4264 4.00066L23.1278 2.4796ZM23.0468 5.91936L23.867 6.68953L25.236 5.2315L24.4158 4.46133L23.0468 5.91936ZM24.5515 5.96052C23.8439 5.254 23.8437 5.25416 23.8435 5.25432C23.8435 5.25439 23.8433 5.25457 23.8431 5.25471C23.8429 5.25498 23.8426 5.2553 23.8422 5.25565C23.8415 5.25634 23.8407 5.25719 23.8397 5.25819C23.8377 5.26017 23.8352 5.26275 23.8321 5.2659C23.8259 5.27221 23.8174 5.28083 23.8069 5.29168C23.7858 5.31338 23.7564 5.34402 23.7199 5.38292C23.6468 5.46065 23.5448 5.57177 23.4237 5.71077C23.1825 5.98757 22.8602 6.38089 22.5381 6.84596C21.9305 7.72325 21.1748 9.06316 21.2204 10.4218L23.2193 10.3547C23.1969 9.6892 23.6071 8.81525 24.1823 7.98471C24.4516 7.59586 24.725 7.26178 24.9316 7.02465C25.0344 6.90668 25.1194 6.8142 25.1773 6.75258C25.2062 6.7218 25.2283 6.69883 25.2423 6.68432C25.2494 6.67708 25.2544 6.67195 25.2573 6.66904C25.2587 6.66759 25.2596 6.66668 25.2599 6.66635C25.2601 6.66618 25.2601 6.66615 25.26 6.66626C25.26 6.66632 25.2599 6.66641 25.2597 6.66654C25.2597 6.66661 25.2595 6.66673 25.2595 6.66676C25.2594 6.66689 25.2592 6.66704 24.5515 5.96052ZM27.3353 10.8272C28.3352 10.8145 28.3352 10.815 28.3352 10.8155C28.3352 10.8157 28.3352 10.8162 28.3352 10.8165C28.3352 10.8171 28.3352 10.8178 28.3352 10.8184C28.3352 10.8196 28.3352 10.8208 28.3353 10.8218C28.3353 10.824 28.3353 10.8259 28.3353 10.8274C28.3352 10.8305 28.3352 10.8325 28.3352 10.8333C28.3352 10.835 28.3352 10.8321 28.3356 10.825C28.3364 10.8109 28.3387 10.7799 28.345 10.7345C28.3574 10.6437 28.3855 10.4957 28.4483 10.3078C28.5724 9.93613 28.837 9.39356 29.411 8.81615L27.9927 7.40609C27.1833 8.22025 26.7646 9.03571 26.5513 9.67417C26.4453 9.99136 26.3911 10.2615 26.3635 10.4625C26.3497 10.563 26.3426 10.6464 26.3389 10.7101C26.3371 10.742 26.3361 10.7689 26.3356 10.7906C26.3354 10.8015 26.3353 10.8111 26.3353 10.8193C26.3353 10.8234 26.3353 10.8272 26.3353 10.8306C26.3353 10.8324 26.3353 10.834 26.3353 10.8355C26.3353 10.8363 26.3353 10.8371 26.3353 10.8378C26.3353 10.8382 26.3353 10.8387 26.3353 10.8389C26.3353 10.8394 26.3354 10.8399 27.3353 10.8272ZM27.9173 8.73115C28.5353 9.51325 29.0233 10.4523 29.3612 11.2192C29.5282 11.5982 29.6543 11.9251 29.738 12.1555C29.7798 12.2704 29.8108 12.3608 29.8309 12.4209C29.841 12.451 29.8483 12.4734 29.8528 12.4875C29.8551 12.4946 29.8567 12.4996 29.8576 12.5024C29.858 12.5038 29.8583 12.5047 29.8584 12.505C29.8584 12.5051 29.8584 12.5051 29.8584 12.505C29.8584 12.505 29.8583 12.5049 29.8583 12.5047C29.8583 12.5047 29.8582 12.5045 29.8582 12.5045C29.8582 12.5044 29.8581 12.5042 30.8132 12.2079C31.7683 11.9116 31.7683 11.9114 31.7682 11.9112C31.7682 11.9112 31.7681 11.911 31.7681 11.9108C31.768 11.9106 31.7679 11.9103 31.7678 11.9099C31.7676 11.9092 31.7673 11.9084 31.767 11.9074C31.7664 11.9054 31.7656 11.9029 31.7646 11.8998C31.7627 11.8936 31.76 11.8852 31.7566 11.8747C31.7498 11.8536 31.7401 11.8239 31.7276 11.7864C31.7025 11.7114 31.6658 11.6048 31.6177 11.4724C31.5217 11.2082 31.3793 10.8392 31.1914 10.4127C30.8196 9.56894 30.2518 8.45958 29.4864 7.49109L27.9173 8.73115ZM32.7779 6.18837L37.4099 2.21709L36.1081 0.698737L31.4761 4.67001L32.7779 6.18837ZM37.4099 2.21702C37.5299 2.11415 37.7083 2.12366 37.8172 2.24132L39.2851 0.882984C38.4472 -0.0225356 37.0455 -0.10512 36.108 0.698803L37.4099 2.21702ZM37.8172 2.24134L38.8696 3.37863L40.3375 2.02025L39.2851 0.882965L37.8172 2.24134ZM38.8697 3.37869C38.9871 3.50562 38.9765 3.707 38.8479 3.82062L40.1717 5.3198C41.1427 4.46237 41.2171 2.97059 40.3375 2.0202L38.8697 3.37869ZM38.8478 3.8207L33.959 8.1386L35.2829 9.63763L40.1717 5.31973L38.8478 3.8207ZM8.55684 12.9308L2.0572 3.76264L0.425618 4.91933L6.92525 14.0875L8.55684 12.9308ZM2.05718 3.76261C1.95402 3.61711 1.99578 3.41587 2.1404 3.32344L1.06331 1.63825C-0.0477246 2.34837 -0.335469 3.84585 0.42564 4.91936L2.05718 3.76261ZM2.14037 3.32346L3.95871 2.16138L2.88169 0.476138L1.06335 1.63822L2.14037 3.32346ZM3.95898 2.1612C4.09099 2.07677 4.26709 2.11033 4.3592 2.24352L6.00418 1.10597C5.30194 0.0904869 3.92356 -0.190201 2.88141 0.476315L3.95898 2.1612ZM4.35934 2.24373L6.27326 5.00991L7.91796 3.87194L6.00404 1.10576L4.35934 2.24373ZM7.65275 5.27134L11.7294 2.53628L10.6151 0.875447L6.53847 3.61051L7.65275 5.27134ZM11.7295 2.53618C11.8576 2.45018 12.0312 2.47729 12.1277 2.60417L13.7196 1.39354C12.9845 0.426895 11.6252 0.197451 10.6149 0.875548L11.7295 2.53618ZM12.1275 2.60392L12.7535 3.42773L14.3459 2.21759L13.7198 1.39379L12.1275 2.60392ZM12.7538 3.42807C12.8595 3.567 12.8282 3.76651 12.6895 3.86613L13.8565 5.49037C14.9116 4.73228 15.1314 3.25027 14.3456 2.21725L12.7538 3.42807ZM12.6895 3.86614L8.49872 6.87724L9.66572 8.50146L13.8565 5.49036L12.6895 3.86614ZM8.25238 8.24735L11.3729 12.8881L13.0326 11.7721L9.91206 7.13135L8.25238 8.24735Z" fill="#EFCE18"/>
</svg>
