<svg width="41" height="35" viewBox="0 0 41 35" fill="none" xmlns="http://www.w3.org/2000/svg">
<path fill-rule="evenodd" clip-rule="evenodd" d="M6.13924 20.3598C6.13924 20.3598 5.32051 20.5082 4.59084 22.0947C4.59084 22.0947 7.92897 28.8854 17.414 30.7291C26.8991 32.5728 36.6505 26.2047 37.8134 20.2225C38.5972 16.19 36.5961 14.0875 36.5961 14.0875L38.3663 8.44707C38.3663 8.44707 37.5945 7.14646 36.6682 6.96641C35.7419 6.78636 34.9741 7.11398 34.9741 7.11398C34.9741 7.11398 33.8977 13.0936 32.9674 14.673C32.0371 16.2524 27.6354 24.241 15.0584 22.401C9.88378 21.7491 6.13924 20.3598 6.13924 20.3598Z" fill="#C98200"/>
<path fill-rule="evenodd" clip-rule="evenodd" d="M30.4665 11.262C30.4665 11.262 26.1797 22.944 8.24283 17.8004C3.81746 13.89 3.88959 11.3153 3.88959 11.3153C3.88959 11.3153 4.89948 10.2086 5.67916 9.98128C21.9579 22.1782 30.4665 11.262 30.4665 11.262Z" fill="#C98200"/>
</svg>
